<?xml version="1.0" encoding="utf-8"?>
<!-- Generator: Adobe Illustrator 27.5.0, SVG Export Plug-In . SVG Version: 6.00 Build 0)  -->
<svg version="1.1" xmlns="http://www.w3.org/2000/svg" xmlns:xlink="http://www.w3.org/1999/xlink" x="0px" y="0px"
	 viewBox="0 0 1122 1122" style="enable-background:new 0 0 1122 1122;" xml:space="preserve">
<g id="Bg">
	<g>
		<g>
			<rect style="fill:none;" width="1122" height="1122"/>
		</g>
	</g>
</g>
<g id="Object">
	<g>
		<path style="fill:#AAD4C8;" d="M450.417,795.682c-13.169,7.798-23.567,16.949-30.115,27.089h281.396
			c-6.548-10.14-16.945-19.291-30.121-27.089H450.417z"/>
		<path style="fill:#616E7D;" d="M420.302,822.771c-2.107,3.256-3.873,6.585-5.162,10.022c-2.894,7.608,2.722,15.757,10.856,15.757
			h270.007c8.134,0,13.744-8.149,10.858-15.757c-1.295-3.438-3.056-6.766-5.163-10.022H420.302z"/>
		<path style="fill:#616E7D;" d="M797.006,509.453c0-130.343-105.663-236.003-236.012-236.003c-130.337,0-236,105.66-236,236.003
			c0,108.913,73.799,200.55,174.105,227.748l-8.382,41.529c-15.245,4.364-28.814,10.152-40.3,16.952h221.16
			c-11.487-6.799-25.049-12.588-40.295-16.952l-8.369-41.529C723.213,709.997,797.006,618.366,797.006,509.453z M560.994,714.058
			c-112.979,0-204.595-91.61-204.595-204.605c0-113.001,91.616-204.602,204.595-204.602c113.01,0,204.608,91.601,204.608,204.602
			C765.602,622.448,674.004,714.058,560.994,714.058z"/>
		<path style="fill:#AAD4C8;" d="M356.398,509.453c0,112.995,91.616,204.605,204.595,204.605
			c113.01,0,204.608-91.61,204.608-204.605c0-113.001-91.598-204.602-204.608-204.602
			C448.014,304.851,356.398,396.452,356.398,509.453z M748.874,509.453c0,103.753-84.123,187.865-187.88,187.865
			c-103.744,0-187.856-84.112-187.856-187.865s84.112-187.859,187.856-187.859C664.75,321.594,748.874,405.699,748.874,509.453z"/>
		<path style="fill:#82BFAB;" d="M373.138,509.453c0,103.753,84.112,187.865,187.856,187.865
			c103.757,0,187.88-84.112,187.88-187.865s-84.123-187.859-187.88-187.859C457.25,321.594,373.138,405.699,373.138,509.453z
			 M678.803,509.453c0,65.062-52.743,117.794-117.81,117.794c-65.053,0-117.797-52.732-117.797-117.794
			c0-65.066,52.744-117.794,117.797-117.794C626.06,391.659,678.803,444.387,678.803,509.453z"/>
		<path style="fill:#616E7D;" d="M443.197,509.453c0,65.062,52.744,117.794,117.797,117.794c65.066,0,117.81-52.732,117.81-117.794
			c0-65.066-52.743-117.794-117.81-117.794C495.941,391.659,443.197,444.387,443.197,509.453z M603.843,509.453
			c0,23.661-19.185,42.833-42.849,42.833c-23.651,0-42.836-19.173-42.836-42.833c0-23.658,19.184-42.833,42.836-42.833
			C584.658,466.62,603.843,485.795,603.843,509.453z M578.109,413.658c0.914,1.253,1.168,2.887,0.666,4.345l-5.762,16.982
			c-0.61,1.816-2.251,3.053-4.17,3.184c-29.661,1.767-57.246,16.089-75.705,39.314c-1.259,1.549-3.347,2.161-5.198,1.531
			l-16.674-5.665c-2.499-0.847-3.867-3.592-3.02-6.106l0.66-1.241c24.347-33.773,63.716-54.093,105.307-54.354
			C575.762,411.649,577.213,412.402,578.109,413.658z"/>
		<path style="fill:#82BFAB;" d="M468.906,466.002l-0.66,1.241c-0.847,2.514,0.521,5.259,3.02,6.106l16.674,5.665
			c1.852,0.63,3.94,0.018,5.198-1.531c18.459-23.224,46.044-37.547,75.705-39.314c1.919-0.13,3.56-1.368,4.17-3.184l5.762-16.982
			c0.502-1.459,0.248-3.093-0.666-4.345c-0.896-1.256-2.347-2.009-3.897-2.009C532.622,411.909,493.254,432.229,468.906,466.002z"/>
		<path style="fill:#AAD4C8;" d="M518.158,509.453c0,23.661,19.184,42.833,42.836,42.833c23.664,0,42.849-19.173,42.849-42.833
			c0-23.658-19.185-42.833-42.849-42.833C537.342,466.62,518.158,485.795,518.158,509.453z"/>
	</g>
</g>
</svg>
